/* XPM */
static char * cp437r_xpm[] = {
"128 128 2 1",
" 	c #040404",
".	c #F80000",
"         ......  ......  .. ..     .      ...      .            ........        ........    ....  ....    ...... ........  ..  .",
"        .      ................   ...    .....     .            ........  ....  ..    ..     ... ..  ..   ..  .. ..   .. . .. . ",
"        . .  . ... .. .........  .....    ...     ...      ..   ...  ... ..  .. .  ..  .    .... ..  ..   ...... .......  ....  ",
"        .      ................ ....... .......  .....    ....  ..    .. .    . . .... . ..... . ..  ..   ..     ..   .....  ...",
"        . .... ...    .. .....   .....  ....... .......   ....  ..    .. .    . . .... ...  ..    ....    ..     ..   .....  ...",
"        .  ..  ....  ...  ...     ...    . . .   .....     ..   ...  ... ..  .. .  ..  ...  ..     ..    ...     ..  ...  ....  ",
"        .      .........   .       .      ...     ...           ........  ....  ..    ....  ..   ...... ....    ...  ..  . .. . ",
"         ......  ......                  .....   .....          ........        ........ ....      ..   ...     ..      .  ..  .",
".             .    ..    ..  ..  .......  .....            ..      ..      ..                                                   ",
"...         ...   ....   ..  .. .. .. .. ..   ..          ....    ....     ..      ..     ..              .  .     ..   ........",
".....     .....  ......  ..  .. .. .. ..  ...            ......  ......    ..       ..   ..     ..       ..  ..   ....  ........",
"....... .......    ..    ..  ..  .... .. .. ..             ..      ..      ..   ....... ....... ..      ........ ......  ...... ",
".....     .....    ..    ..  ..    .. .. .. ..   ......  ......    ..    ......     ..   ..     ..       ..  .. ........  ....  ",
"...         ...  ......            .. ..  ...    ......   ....     ..     ....     ..     ..    .......   .  .  ........   ..   ",
".             .   ....   ..  ..    .. ....  ..   ......    ..      ..      ..                                                   ",
"                   ..                    ....           ........                                                                ",
"          ..     .. ..   .. ..    ..              ...    ..        ..    ..                                                  .. ",
"         ....    .. ..   .. ..   .....  ..   ..  .. ..   ..       ..      ..     ..  ..   ..                                ..  ",
"         ....    .. ..  ....... ..      ..  ..    ...   ..       ..        ..     ....    ..                               ..   ",
"          ..             .. ..   ....      ..    ... ..          ..        ..   ..............          ......            ..    ",
"          ..            .......     ..    ..    .. ...           ..        ..     ....    ..                             ..     ",
"                         .. ..  .....    ..  .. ..  ..            ..      ..     ..  ..   ..      ..              ..    ..      ",
"          ..             .. ..    ..    ..   ..  ... ..            ..    ..                       ..              ..    .       ",
"                                                                                                 ..                             ",
"  ...     ..     ....    ....      ...  ......    ...   ......   ....    ....                      ..            ..      ....   ",
" .. ..   ...    ..  ..  ..  ..    ....  ..       ..     ..  ..  ..  ..  ..  ..    ..      ..      ..              ..    ..  ..  ",
"..   ..   ..        ..      ..   .. ..  .....   ..          ..  ..  ..  ..  ..    ..      ..     ..     ......     ..       ..  ",
".. . ..   ..      ...     ...   ..  ..      ..  .....      ..    ....    .....                  ..                  ..     ..   ",
"..   ..   ..     ..         ..  .......     ..  ..  ..    ..    ..  ..      ..                   ..                ..     ..    ",
" .. ..    ..    ..  ..  ..  ..      ..  ..  ..  ..  ..    ..    ..  ..     ..     ..      ..      ..    ......    ..            ",
"  ...   ......  ......   ....      ....  ....    ....     ..     ....    ...      ..      ..       ..            ..       ..    ",
"                                                                                         ..                                     ",
" .....    ..    ......    ....  .....   ....... .......   ....  ..  ..   ....      .... ...  .. ....    ..   .. ..   ..  .....  ",
"..   ..  ....    ..  ..  ..  ..  .. ..   ..   .  ..   .  ..  .. ..  ..    ..        ..   ..  ..  ..     ... ... ...  .. ..   .. ",
".. .... ..  ..   ..  .. ..       ..  ..  .. .    .. .   ..      ..  ..    ..        ..   .. ..   ..     ....... .... .. ..   .. ",
".. .... ..  ..   .....  ..       ..  ..  ....    ....   ..      ......    ..        ..   ....    ..     ....... .. .... ..   .. ",
".. .... ......   ..  .. ..       ..  ..  .. .    .. .   ..  ... ..  ..    ..    ..  ..   .. ..   ..   . .. . .. ..  ... ..   .. ",
"..      ..  ..   ..  ..  ..  ..  .. ..   ..   .  ..      ..  .. ..  ..    ..    ..  ..   ..  ..  ..  .. ..   .. ..   .. ..   .. ",
" ....   ..  ..  ......    ....  .....   ....... ....      ... . ..  ..   ....    ....   ...  .. ....... ..   .. ..   ..  .....  ",
"                                                                                                                                ",
"......   .....  ......   .....  ......  ..  ..  ..  ..  ..   .. ..   .. ..  ..  .......  ....   ..       ....      .            ",
" ..  .. ..   ..  ..  .. ..   .. ......  ..  ..  ..  ..  ..   .. ..   .. ..  ..  ..   ..  ..      ..        ..     ...           ",
" ..  .. ..   ..  ..  .. ...     . .. .  ..  ..  ..  ..  ..   ..  .. ..  ..  ..  .   ..   ..       ..       ..    .. ..          ",
" .....  ..   ..  .....   .....    ..    ..  ..  ..  ..  .. . ..   ...    ....      ..    ..        ..      ..   ..   ..         ",
" ..     .. . ..  .. ..      ...   ..    ..  ..  ..  ..  .. . ..  .. ..    ..      ..  .  ..         ..     ..                   ",
" ..     .. ....  ..  .. ..   ..   ..    ..  ..   ....   ....... ..   ..   ..     ..  ..  ..          ..    ..                   ",
"....     .....  ...  ..  .....   ....    ....     ..     .. ..  ..   ..  ....   .......  ....         .  ....                   ",
"            ...                                                                                                         ........",
"  ..            ...                ...            ...           ...       ..        ..  ...      ...                            ",
"  ..             ..                 ..           .. ..           ..                      ..       ..                            ",
"   ..    ....    ....    ....       ..   ....    ..      ... ..  .. ..   ...       ...   ..  ..   ..    ..  ..  .. ...   ....   ",
"            ..   .. ..  ..  ..   .....  ..  ..  ....    ..  ..   ... ..   ..        ..   .. ..    ..    .......  ..  .. ..  ..  ",
"         .....   ..  .. ..      ..  ..  ......   ..     ..  ..   ..  ..   ..        ..   ....     ..    .......  ..  .. ..  ..  ",
"        ..  ..   ..  .. ..  ..  ..  ..  ..       ..      .....   ..  ..   ..    ..  ..   .. ..    ..    .. . ..  ..  .. ..  ..  ",
"         ... .. .. ...   ....    ... ..  ....   ....        ..  ...  ..  ....   ..  ..  ...  ..  ....   ..   ..  ..  ..  ....   ",
"                                                        .....                    ....                                           ",
"                                   .                                                       ...     ..   ...      ... ..         ",
"                                  ..                                                      ..       ..     ..    .. ...     .    ",
".. ...   ... .. .. ...   .....  ......  ..  ..  ..  ..  ..   .. ..   .. ..  ..  ......    ..       ..     ..              ...   ",
" ..  .. ..  ..   ... .. ..        ..    ..  ..  ..  ..  .. . ..  .. ..  ..  ..  .  ..   ...                ...           .. ..  ",
" ..  .. ..  ..   ..  ..  ....     ..    ..  ..  ..  ..  .......   ...   ..  ..    ..      ..       ..     ..            ..   .. ",
" .....   .....   ..        ...    .. .. ..  ..   ....   .......  .. ..   .....   ..  .    ..       ..     ..            ..   .. ",
" ..         ..  ....    .....      ...   ... ..   ..     .. ..  ..   ..     ..  ......     ...     ..   ...             ....... ",
"....       ....                                                         .....                                                   ",
" ....              ...   ...... ..  ..  ...       ..             ...... ..  ..  ...     ..  ..   .....  ...     ..   ..   ..    ",
"..  ..  ..  ..          ..    ..                  ..            ..    ..                        ..   ..           ...     ..    ",
"..               ....     ....   ....    ....    ....    ....     ....   ....    ....    ...      ...    ...     .. ..          ",
"..  ..  ..  ..  ..  ..       ..     ..      ..      ..  ..       ..  .. ..  ..  ..  ..    ..       ..     ..    ..   ..  ....   ",
" ....   ..  ..  ......    .....  .....   .....   .....  ..       ...... ......  ......    ..       ..     ..    ....... ..  ..  ",
"   ..   ..  ..  ..       ..  .. ..  ..  ..  ..  ..  ..   ....    ..     ..      ..        ..       ..     ..    ..   .. ......  ",
"    ..   ......  ....     ...... ......  ......  ......     ..    ....   ....    ....    ....     ....   ....   ..   .. ..  ..  ",
" ....                                                     ...                                                                   ",
"   ...            .....  ....                    ....                   ..    ....  ..     ..     ...   ..  ..  .....       ... ",
"                 .. ..  ..  ..  ..  ..  ...     ..  ..  ...     ..  ..     ..              ..    .. ..  ..  ..  ..  ..     .. ..",
"......   ...... ..  ..                                                    ....  ..  ..   ......  ..  .   ....   ..  ..     ..   ",
" ..        .. .........  ....    ....    ....   ..  ..  ..  ..  ..  ..   ..  .. ..  ..  ..      ....    ......  ..... .   ....  ",
" ....    ...... ..  ..  ..  ..  ..  ..  ..  ..  ..  ..  ..  ..  ..  ..   ..  .. ..  ..  ..       ..       ..    ..   ..    ..   ",
" ..     .. ..   ..  ..  ..  ..  ..  ..  ..  ..  ..  ..  ..  ..   .....    ....  ..  ..   ...... ...  .. ......  ..  ....   ..   ",
"......   ...... ..  ...  ....    ....    ....    ......  ......     ..     ..    ....      ..   ......    ..    ..   .. .. ..   ",
"                                                                .....                      ..             ..    ..   ... ...    ",
"   ...    ...                           ......    ....    ...     ..                    ..    ....    ..   ..                   ",
"                   ...     ...  .....            .. ..   .. ..                          ..   .. ..   ..           ..  ....  ..  ",
" ....    ...                            ..  ..   .. ..   .. ..    ..                    ..  ..  ..  ..     ..    ..  ..  ..  .. ",
"    ..    ..     ....   ..  ..  .....   ... ..    .....   ...    ..     ......  ......  .. .... .. .. ..   ..   ..  ..    ..  ..",
" .....    ..    ..  ..  ..  ..  ..  ..  ......                  ..      ..          ..    ..  ..  .. ...  ....   ..  ..  ..  .. ",
"..  ..    ..    ..  ..  ..  ..  ..  ..  .. ...   ......  .....  ..  ..  ..          ..   ..  ..  .. ....  ....    ..  ....  ..  ",
" ......  ....    ....    ...... ..  ..  ..  ..                   ....                   ..  ..  ..  ....   ..                   ",
"                                                                                            ....      ..                        ",
"  .   .  . . . ... .. ..   ..      ..      ..     .. ..                   .. ..   .. ..           .. ..   .. ..    ..           ",
".   .   . . . .  ... ...   ..      ..      ..     .. ..                   .. ..   .. ..           .. ..   .. ..    ..           ",
"  .   .  . . . ... .. ..   ..      ..   .....     .. ..         .....   .... ..   .. .. ....... .... ..   .. .. .....           ",
".   .   . . . . ... ...    ..      ..      ..     .. ..            ..        ..   .. ..      ..      ..   .. ..    ..           ",
"  .   .  . . . ... .. ..   ..   .....   .....   .... .. ....... .....   .... ..   .. .. .... .. ....... ....... .....   .....   ",
".   .   . . . .  ... ...   ..      ..      ..     .. ..   .. ..    ..     .. ..   .. ..   .. ..                            ..   ",
"  .   .  . . . ... .. ..   ..      ..      ..     .. ..   .. ..    ..     .. ..   .. ..   .. ..                            ..   ",
".   .   . . . . ... ...    ..      ..      ..     .. ..   .. ..    ..     .. ..   .. ..   .. ..                            ..   ",
"   ..      ..              ..              ..      ..     .. ..   .. ..           .. ..           .. ..           .. ..    ..   ",
"   ..      ..              ..              ..      ..     .. ..   .. ..           .. ..           .. ..           .. ..    ..   ",
"   ..      ..              ..              ..      .....  .. ..   .. ...  .......... ...........  .. ............... ...........",
"   ..      ..              ..              ..      ..     .. ..   ..      ..                      ..                            ",
"   .....................   .....................   .....  .. ...  ......  .. ............... ...  .. ............... ...........",
"                   ..      ..              ..      ..     .. ..           .. ..           .. ..   .. ..           .. ..         ",
"                   ..      ..              ..      ..     .. ..           .. ..           .. ..   .. ..           .. ..         ",
"                   ..      ..              ..      ..     .. ..           .. ..           .. ..   .. ..           .. ..         ",
"  .. ..                   .. ..    ..                     .. ..    ..      ..           ........        ....        ............",
"  .. ..                   .. ..    ..                     .. ..    ..      ..           ........        ....        ............",
"  .. .. ........          .. ..    .....   .....          .. .. ........   ..           ........        ....        ............",
"  .. ..                   .. ..    ..      ..             .. ..    ..      ..           ........        ....        ............",
"........................  ......   .....   .....  ...........................      .........................        ....        ",
"           ..     .. ..                    ..     .. ..   .. ..    ..              ..   ....................        ....        ",
"           ..     .. ..                    ..     .. ..   .. ..    ..              ..   ....................        ....        ",
"           ..     .. ..                    ..     .. ..   .. ..    ..              ..   ....................        ....        ",
"                                ......                          ......   .....    ...      ...               ..   ...    ....   ",
"         ....   ......  ....... ..  ..           ..  ..  ... ..   ..    ..   ..  .. ..    ..                ..   ..     ..  ..  ",
" ... .. ..  ..  ..  ..   .. ..   ..      ......  ..  .. .. ...   ....   ..   .. ..   ..    ..    ......  ...... ..      ..  ..  ",
".. ...  .....   ..       .. ..    ..    .. ..    ..  ..    ..   ..  ..  ....... ..   ..  .....  .. .. .... .. .......   ..  ..  ",
"..  .   ..  ..  ..       .. ..   ..     .. ..    ..  ..    ..   ..  ..  ..   ..  .. ..  ..  ..  .. .. .... .. ....      ..  ..  ",
".. ...  .....   ..       .. ..  ..  ..  .. ..    .....     ..    ....   ..   ..  .. ..  ..  ..   ......  ......  ..     ..  ..  ",
" ... .. ..      ..       .. ..  ......   ...     ..        ..     ..     .....  ... ...  ....            ..       ...   ..  ..  ",
"        ..                                      ..              ......                                  ..                      ",
"          ..     ..        ..       ...    ..     ..              ...                       .... ....    ...                    ",
"......    ..      ..      ..       .. ..   ..     ..     ... ..  .. ..                      ..   .. ..     ..                   ",
"        ......     ..    ..        .. ..   ..           .. ...   .. ..                      ..   .. ..    ..      ....          ",
"......    ..      ..      ..       ..      ..   ......            ...      ..               ..   .. ..   ..       ....          ",
"          ..     ..        ..      ..      ..            ... ..            ..      ..   ... ..   .. ..   ....     ....          ",
"......                             ..   .. ..     ..    .. ...                           .. ..                    ....          ",
"        ......  ......  ......     ..   .. ..     ..                                      ....                                  ",
"                                   ..    ...                                               ...                                  "};
